<?xml version="1.0" encoding="UTF-8"?>
<!DOCTYPE svg PUBLIC "-//W3C//DTD SVG 1.1//EN" "http://www.w3.org/Graphics/SVG/1.1/DTD/svg11.dtd">
<svg version="1.2" width="297mm" height="210mm" viewBox="0 0 29700 21000" preserveAspectRatio="xMidYMid" fill-rule="evenodd" stroke-width="28.222" stroke-linejoin="round" xmlns="http://www.w3.org/2000/svg" xmlns:ooo="http://xml.openoffice.org/svg/export" xmlns:xlink="http://www.w3.org/1999/xlink" xmlns:presentation="http://sun.com/xmlns/staroffice/presentation" xmlns:smil="http://www.w3.org/2001/SMIL20/" xmlns:anim="urn:oasis:names:tc:opendocument:xmlns:animation:1.0" xml:space="preserve">
 <defs class="ClipPathGroup">
  <clipPath id="presentation_clip_path" clipPathUnits="userSpaceOnUse">
   <rect x="0" y="0" width="29700" height="21000"/>
  </clipPath>
  <clipPath id="presentation_clip_path_shrink" clipPathUnits="userSpaceOnUse">
   <rect x="29" y="21" width="29641" height="20958"/>
  </clipPath>
 </defs>
 <defs class="TextShapeIndex">
  <g ooo:slide="id1" ooo:id-list="id3"/>
 </defs>
 <defs class="EmbeddedBulletChars">
  <g id="bullet-char-template-57356" transform="scale(0.00048828125,-0.00048828125)">
   <path d="M 580,1141 L 1163,571 580,0 -4,571 580,1141 Z"/>
  </g>
  <g id="bullet-char-template-57354" transform="scale(0.00048828125,-0.00048828125)">
   <path d="M 8,1128 L 1137,1128 1137,0 8,0 8,1128 Z"/>
  </g>
  <g id="bullet-char-template-10146" transform="scale(0.00048828125,-0.00048828125)">
   <path d="M 174,0 L 602,739 174,1481 1456,739 174,0 Z M 1358,739 L 309,1346 659,739 1358,739 Z"/>
  </g>
  <g id="bullet-char-template-10132" transform="scale(0.00048828125,-0.00048828125)">
   <path d="M 2015,739 L 1276,0 717,0 1260,543 174,543 174,936 1260,936 717,1481 1274,1481 2015,739 Z"/>
  </g>
  <g id="bullet-char-template-10007" transform="scale(0.00048828125,-0.00048828125)">
   <path d="M 0,-2 C -7,14 -16,27 -25,37 L 356,567 C 262,823 215,952 215,954 215,979 228,992 255,992 264,992 276,990 289,987 310,991 331,999 354,1012 L 381,999 492,748 772,1049 836,1024 860,1049 C 881,1039 901,1025 922,1006 886,937 835,863 770,784 769,783 710,716 594,584 L 774,223 C 774,196 753,168 711,139 L 727,119 C 717,90 699,76 672,76 641,76 570,178 457,381 L 164,-76 C 142,-110 111,-127 72,-127 30,-127 9,-110 8,-76 1,-67 -2,-52 -2,-32 -2,-23 -1,-13 0,-2 Z"/>
  </g>
  <g id="bullet-char-template-10004" transform="scale(0.00048828125,-0.00048828125)">
   <path d="M 285,-33 C 182,-33 111,30 74,156 52,228 41,333 41,471 41,549 55,616 82,672 116,743 169,778 240,778 293,778 328,747 346,684 L 369,508 C 377,444 397,411 428,410 L 1163,1116 C 1174,1127 1196,1133 1229,1133 1271,1133 1292,1118 1292,1087 L 1292,965 C 1292,929 1282,901 1262,881 L 442,47 C 390,-6 338,-33 285,-33 Z"/>
  </g>
  <g id="bullet-char-template-9679" transform="scale(0.00048828125,-0.00048828125)">
   <path d="M 813,0 C 632,0 489,54 383,161 276,268 223,411 223,592 223,773 276,916 383,1023 489,1130 632,1184 813,1184 992,1184 1136,1130 1245,1023 1353,916 1407,772 1407,592 1407,412 1353,268 1245,161 1136,54 992,0 813,0 Z"/>
  </g>
  <g id="bullet-char-template-8226" transform="scale(0.00048828125,-0.00048828125)">
   <path d="M 346,457 C 273,457 209,483 155,535 101,586 74,649 74,723 74,796 101,859 155,911 209,963 273,989 346,989 419,989 480,963 531,910 582,859 608,796 608,723 608,648 583,586 532,535 482,483 420,457 346,457 Z"/>
  </g>
  <g id="bullet-char-template-8211" transform="scale(0.00048828125,-0.00048828125)">
   <path d="M -4,459 L 1135,459 1135,606 -4,606 -4,459 Z"/>
  </g>
  <g id="bullet-char-template-61548" transform="scale(0.00048828125,-0.00048828125)">
   <path d="M 173,740 C 173,903 231,1043 346,1159 462,1274 601,1332 765,1332 928,1332 1067,1274 1183,1159 1299,1043 1357,903 1357,740 1357,577 1299,437 1183,322 1067,206 928,148 765,148 601,148 462,206 346,322 231,437 173,577 173,740 Z"/>
  </g>
 </defs>
 <defs class="TextEmbeddedBitmaps"/>
 <g>
  <g id="id2" class="Master_Slide">
   <g id="bg-id2" class="Background"/>
   <g id="bo-id2" class="BackgroundObjects"/>
  </g>
 </g>
 <g class="SlideGroup">
  <g>
   <g id="container-id1">
    <g id="id1" class="Slide" clip-path="url(#presentation_clip_path)">
     <g class="Page">
      <g class="com.sun.star.drawing.ClosedBezierShape">
       <g id="id3">
        <rect class="BoundingBox" stroke="none" fill="none" x="1940" y="8870" width="25823" height="3261"/>
        <path fill="rgb(102,41,133)" stroke="none" d="M 19709,8918 C 20081,8855 20467,8854 20839,8924 21660,9100 21671,9725 21540,10420 21430,10920 21270,11454 20860,11792 20468,12103 19939,12136 19458,12129 19165,12110 18851,12068 18609,11886 18149,11543 18297,10771 18426,10291 18607,9620 18958,9030 19709,8918 Z M 19709,8918 L 19709,8918 Z M 19452,9870 C 19309,10135 19248,10433 19178,10723 19143,10901 19088,11104 19193,11269 19285,11406 19465,11427 19616,11443 19834,11452 20072,11449 20264,11330 20446,11201 20520,10978 20586,10776 20660,10509 20751,10240 20757,9961 20767,9621 20471,9562 20198,9557 19906,9552 19606,9579 19452,9870 Z M 19452,9870 L 19452,9870 Z M 5552,8932 L 5801,8932 C 5861,8932 5896,8980 5880,9039 L 5206,11516 C 5068,11984 4645,12074 4255,12068 3908,12064 3742,11977 3658,11741 3619,11632 3602,11508 3592,11381 L 3592,11381 3592,11380 C 3589,11337 3587,11293 3585,11249 3555,10739 3525,10227 3495,9714 3494,9699 3493,9683 3488,9670 3481,9648 3466,9640 3435,9640 3399,9639 3361,9648 3348,9690 L 2852,11516 C 2811,11663 2775,11821 2665,11937 2565,12038 2412,12067 2272,12069 L 2023,12069 C 1963,12069 1929,12021 1944,11961 L 2618,9485 C 2756,9016 3179,8926 3569,8932 3916,8937 4082,9023 4166,9259 4205,9368 4222,9492 4232,9619 L 4232,9619 4232,9620 C 4235,9663 4237,9707 4239,9751 4270,10263 4299,10775 4329,11286 4329,11301 4331,11317 4335,11331 4343,11352 4358,11360 4389,11360 4425,11361 4463,11353 4476,11310 L 4972,9484 C 5013,9337 5049,9179 5159,9063 5259,8962 5412,8933 5552,8932 Z M 5552,8932 L 5552,8932 Z M 5501,11961 L 6042,9972 C 6120,9695 6188,9397 6389,9179 6574,8988 6853,8934 7109,8932 L 8739,8932 C 8798,8932 8833,8980 8817,9039 L 8810,9064 C 8769,9211 8733,9369 8623,9485 8523,9587 8370,9615 8230,9617 L 7238,9617 C 7136,9618 7025,9639 6952,9712 6872,9796 6846,9911 6816,10018 L 6786,10127 8200,10127 C 8260,10127 8295,10175 8279,10234 L 8272,10260 C 8230,10407 8194,10566 8085,10682 7984,10783 7832,10812 7691,10813 L 6913,10813 C 6811,10814 6700,10835 6627,10909 6547,10993 6521,11108 6491,11215 L 6445,11383 8221,11383 C 8280,11383 8315,11431 8299,11491 L 8292,11516 C 8251,11663 8215,11821 8106,11937 8005,12038 7852,12067 7712,12069 L 5579,12069 C 5520,12069 5485,12021 5501,11961 Z M 5501,11961 L 5501,11961 Z M 21485,11961 L 22026,9972 C 22104,9695 22172,9397 22373,9179 22558,8988 22836,8934 23093,8932 L 24723,8932 C 24782,8932 24817,8980 24801,9039 L 24794,9064 C 24752,9211 24717,9369 24607,9485 24506,9587 24354,9615 24213,9617 L 23222,9617 C 23119,9618 23009,9639 22936,9712 22856,9796 22830,9911 22800,10018 L 22770,10127 24184,10127 C 24244,10127 24279,10175 24262,10234 L 24256,10260 C 24214,10407 24178,10566 24069,10682 23968,10783 23816,10812 23675,10813 L 22896,10813 C 22794,10814 22684,10835 22610,10909 22531,10993 22505,11108 22475,11215 L 22429,11383 24205,11383 C 24264,11383 24299,11431 24283,11491 L 24276,11516 C 24235,11663 24199,11821 24089,11937 23989,12038 23836,12067 23696,12069 L 21563,12069 C 21504,12069 21469,12021 21485,11961 Z M 21485,11961 L 21485,11961 Z M 12053,8932 L 9526,8932 C 9386,8933 9233,8962 9133,9063 9023,9179 8987,9337 8946,9484 L 8939,9509 C 8923,9569 8958,9617 9017,9617 L 9971,9617 C 10031,9617 10066,9665 10050,9724 L 9442,11961 C 9425,12021 9460,12069 9520,12069 L 9769,12069 C 9909,12067 10062,12038 10163,11937 10272,11821 10308,11663 10349,11516 L 10715,10169 C 10757,10022 10792,9864 10902,9748 11003,9647 11155,9618 11296,9617 L 11544,9617 C 11685,9615 11837,9587 11938,9485 12047,9369 12083,9211 12124,9064 L 12131,9039 C 12147,8980 12112,8932 12053,8932 Z M 12053,8932 L 12053,8932 Z M 14628,11961 C 14612,12021 14647,12069 14707,12069 L 14957,12069 C 15097,12067 15250,12038 15350,11937 15460,11821 15496,11663 15537,11516 L 15589,11326 C 15630,11179 15666,11021 15776,10905 15876,10803 16029,10775 16169,10773 L 17045,10773 C 17104,10773 17139,10821 17123,10881 L 16829,11961 C 16813,12021 16848,12069 16907,12069 L 17157,12069 C 17297,12067 17450,12038 17550,11937 17660,11821 17696,11663 17737,11516 17961,10691 18186,9864 18410,9039 18426,8980 18391,8932 18332,8932 L 18083,8932 C 17942,8933 17790,8962 17689,9063 17580,9179 17544,9337 17503,9484 L 17489,9534 C 17447,9682 17412,9840 17302,9955 17202,10057 17049,10085 16909,10087 L 16033,10087 C 15973,10087 15938,10039 15955,9980 L 16210,9039 C 16227,8980 16192,8932 16132,8932 L 15883,8932 C 15743,8933 15590,8962 15489,9063 15380,9179 15344,9337 15303,9484 15078,10310 14854,11136 14628,11961 Z M 14628,11961 L 14628,11961 Z M 13517,12069 L 11701,12069 C 11642,12069 11607,12021 11623,11961 L 11630,11935 C 11671,11788 11707,11630 11816,11514 11917,11413 12070,11384 12210,11383 L 13435,11383 13534,11383 C 13578,11381 13626,11374 13657,11340 13689,11303 13704,11251 13694,11203 13683,11168 13655,11144 13626,11125 13620,11121 13614,11117 13608,11113 13317,10932 13023,10752 12732,10570 12694,10546 12656,10522 12618,10496 12442,10382 12274,10232 12210,10025 12146,9733 12236,9413 12433,9190 12621,8986 12914,8941 13177,8932 L 14903,8932 C 14963,8932 14998,8980 14982,9039 L 14975,9065 C 14933,9212 14897,9370 14787,9486 14686,9587 14534,9616 14393,9618 L 13169,9618 C 13125,9619 13077,9627 13046,9660 13013,9697 12999,9750 13009,9798 13020,9832 13048,9857 13077,9876 13367,10064 13668,10243 13963,10427 14001,10451 14039,10476 14077,10501 14253,10615 14421,10765 14485,10973 14549,11266 14458,11586 14261,11809 14073,12014 13780,12059 13517,12069 Z M 13517,12069 L 13517,12069 Z M 26294,12069 L 24478,12069 C 24419,12069 24384,12021 24400,11961 L 24407,11935 C 24449,11788 24484,11630 24594,11514 24695,11413 24847,11384 24988,11383 L 26213,11383 26312,11383 C 26355,11381 26403,11374 26434,11340 26467,11303 26482,11251 26471,11203 26461,11168 26433,11144 26404,11125 26398,11121 26391,11117 26385,11113 26094,10932 25801,10752 25510,10570 25472,10546 25434,10522 25396,10496 25220,10382 25051,10232 24988,10025 24923,9733 25013,9413 25211,9190 25399,8986 25691,8941 25955,8932 L 27680,8932 C 27739,8932 27774,8980 27758,9039 L 27751,9065 C 27709,9212 27674,9370 27564,9486 27464,9587 27311,9616 27171,9618 L 25946,9618 C 25903,9619 25855,9627 25823,9660 25791,9697 25776,9750 25787,9798 25797,9832 25825,9857 25854,9876 26144,10064 26445,10243 26740,10427 26778,10451 26816,10476 26854,10501 27030,10615 27198,10765 27262,10973 27326,11266 27236,11586 27038,11809 26850,12014 26558,12059 26294,12069 Z"/>
       </g>
      </g>
     </g>
    </g>
   </g>
  </g>
 </g>
</svg>